<svg width="20" height="20" viewBox="0 0 20 20" fill="none" xmlns="http://www.w3.org/2000/svg">
<path d="M6.04064 14.4975C6.70787 14.4975 7.24877 15.0384 7.24877 15.7056C7.24877 16.3729 6.70787 16.9138 6.04064 16.9138C5.37342 16.9138 4.83252 16.3729 4.83252 15.7056C4.83252 15.0384 5.37342 14.4975 6.04064 14.4975Z" stroke="white" stroke-width="1.5"/>
<path d="M13.2894 14.4976C13.9566 14.4976 14.4975 15.0385 14.4975 15.7057C14.4975 16.3729 13.9566 16.9138 13.2894 16.9138C12.6221 16.9138 12.0812 16.3729 12.0812 15.7057C12.0812 15.0385 12.6221 14.4976 13.2894 14.4976Z" stroke="white" stroke-width="1.5"/>
<path d="M8.85961 7.24875H6.44336" stroke="white" stroke-width="1.5" stroke-linecap="round"/>
<path d="M1.61084 2.41624L1.8242 2.48737C2.88738 2.84176 3.41897 3.01896 3.72303 3.44081C4.02709 3.86267 4.02709 4.42302 4.02709 5.54371V7.65145C4.02709 9.92952 4.02709 11.0685 4.73479 11.7762C5.4425 12.484 6.58153 12.484 8.85959 12.484H10.4704M15.3029 12.484H13.6921" stroke="white" stroke-width="1.5" stroke-linecap="round"/>
<path d="M4.0271 4.8325H6.44335M4.42981 10.4704H12.9043C13.677 10.4704 14.0633 10.4704 14.3659 10.2709C14.6685 10.0714 14.8207 9.71623 15.1251 9.00598L15.4703 8.20056C16.1223 6.67927 16.4483 5.91863 16.0902 5.37557C15.7321 4.8325 14.9045 4.8325 13.2494 4.8325H9.66502" stroke="white" stroke-width="1.5" stroke-linecap="round"/>
</svg>
