<svg width="58" height="22" viewBox="0 0 58 22" fill="none" xmlns="http://www.w3.org/2000/svg">
<g clip-path="url(#clip0_6_7)">
<g clip-path="url(#clip1_6_7)">
<g clip-path="url(#clip2_6_7)">
<path d="M22.1022 0.227829H21.3196C21.319 0.227829 21.3186 0.228311 21.3186 0.228907V21.8889C21.3186 21.8895 21.319 21.89 21.3196 21.89H22.1022C22.1027 21.89 22.1032 21.8895 22.1032 21.8889V0.228907C22.1032 0.228311 22.1027 0.227829 22.1022 0.227829Z" fill="white"/>
<g clip-path="url(#clip3_6_7)">
<g clip-path="url(#clip4_6_7)">
<g clip-path="url(#clip5_6_7)">
<g clip-path="url(#clip6_6_7)">
<path d="M29.8663 1.2426L29.5001 3.74656C28.6322 3.44946 27.9976 3.30107 27.5961 3.30107C27.1928 3.30107 26.9173 3.50077 26.7689 3.90017C26.6189 4.29958 26.5438 4.93156 26.5438 5.79581C26.5438 6.66221 26.6143 7.29296 26.7553 7.68837C26.8945 8.08163 27.1812 8.27826 27.6151 8.27826C27.7418 8.27826 27.9859 8.2374 28.3474 8.15537V6.98788H27.7372V5.17519H30.3274V10.4443H28.7271L28.5102 9.95269H28.4559C28.3021 10.0962 28.1801 10.2037 28.0898 10.2753C27.8367 10.4903 27.4795 10.5979 27.0184 10.5979C25.1288 10.5979 24.1841 8.97968 24.1841 5.74358C24.1841 4.12538 24.4329 2.88845 24.93 2.03219C25.4272 1.17808 26.2636 0.751022 27.4388 0.751022C28.3792 0.751022 29.1882 0.914778 29.8663 1.2426ZM35.9688 0.904639L37.5148 10.4443H35.2501L34.9924 8.93881H33.3922L33.1345 10.4443H30.9783L32.5243 0.904639H35.9688ZM33.6906 7.14149H34.7348L34.2601 3.73119H34.1652L33.6906 7.14149ZM46.0855 0.904639L46.3703 10.4443H44.2412V5.46707H44.1191L43.319 10.4443H41.1357L40.3762 5.46707H40.2406V10.4443H38.1386L38.4234 0.904639H41.4747L42.2341 6.06617H42.3426L43.0749 0.904639H46.0855ZM52.1745 8.29362L52.0389 10.4443H47.4823V0.904639H52.1745L52.0389 3.25498H49.8013V4.68362H51.7405V6.71137H49.8013V8.29362H52.1745ZM52.5813 3.77728C52.5813 2.86571 52.8165 2.13358 53.2865 1.58055C53.7565 1.02753 54.4012 0.751022 55.2203 0.751022C56.0375 0.751022 56.8756 0.843192 57.7346 1.02753L57.4633 3.48541C56.5683 3.24976 55.9534 3.13209 55.619 3.13209C55.194 3.13209 54.9816 3.32657 54.9816 3.71583C54.9816 3.86945 55.0839 4.01784 55.2881 4.16132C55.4907 4.3048 55.7365 4.45534 56.0259 4.61296C56.3153 4.77272 56.6044 4.96228 56.8938 5.18134C57.1832 5.40255 57.43 5.71808 57.6342 6.12762C57.8368 6.53716 57.938 7.00846 57.938 7.5409C57.938 8.51391 57.7074 9.26663 57.2464 9.79907C56.7853 10.3315 56.1325 10.5979 55.2881 10.5979C54.4419 10.5979 53.6166 10.4495 52.8119 10.1524L52.961 7.86349C53.9285 8.18087 54.6019 8.33971 54.9816 8.33971C55.3614 8.33971 55.5512 8.15014 55.5512 7.77132C55.5512 7.57684 55.4501 7.39742 55.2474 7.23366C55.0432 7.06991 54.7964 6.90585 54.507 6.74209C54.2176 6.57833 53.9266 6.38877 53.6337 6.17371C53.3388 5.95864 53.0904 5.64618 52.8878 5.23664C52.6836 4.8271 52.5813 4.34044 52.5813 3.77728Z" fill="white"/>
<path d="M24.9381 12.6717C25.457 11.9036 26.3086 11.5196 27.493 11.5196C28.6775 11.5196 29.5253 11.8984 30.0371 12.6563C30.547 13.4143 30.802 14.6451 30.802 16.3493C30.802 18.0554 30.5397 19.3181 30.0154 20.1375C29.4911 20.9569 28.6411 21.3664 27.4659 21.3664C26.2907 21.3664 25.4453 20.9618 24.93 20.1529C24.4146 19.3439 24.157 18.0861 24.157 16.38C24.157 14.6758 24.4174 13.4398 24.9381 12.6717ZM28.4694 16.3585C28.4694 15.4162 28.4044 14.7784 28.2742 14.4444C28.1421 14.1126 27.8755 13.9467 27.4741 13.9467C27.0707 13.9467 26.8104 14.1126 26.6929 14.4444C26.5755 14.7784 26.5166 15.4113 26.5166 16.3432V16.7118C26.5166 17.7051 26.5825 18.3577 26.7146 18.6689C26.8448 18.9823 27.1114 19.139 27.5147 19.139C27.9161 19.139 28.1757 18.9906 28.2932 18.6935C28.4106 18.3964 28.4694 17.7819 28.4694 16.8501V16.3585ZM37.8674 11.6732V21.2128H35.6433L33.8939 16.7733H33.7854V21.2128H31.7241V11.6732H34.016L35.684 16.251H35.7925V11.6732H37.8674ZM44.2818 18.079C44.2818 18.3964 44.3407 18.632 44.4581 18.7857C44.5756 18.9393 44.7681 19.0161 45.0358 19.0161C45.3016 19.0161 45.4869 18.9414 45.5918 18.7918C45.6949 18.6443 45.7464 18.4016 45.7464 18.0637V11.6732H48.079V18.2173C48.079 19.3132 47.8151 20.112 47.287 20.6137C46.7573 21.1154 45.9797 21.3664 44.9545 21.3664C43.9273 21.3664 43.1625 21.1176 42.6599 20.6199C42.1589 20.1243 41.9086 19.3335 41.9086 18.248V11.6732H44.2818V18.079ZM48.8926 14.5458C48.8926 13.6343 49.1278 12.9021 49.5978 12.3491C50.0678 11.7961 50.7125 11.5196 51.5316 11.5196C52.3488 11.5196 53.1869 11.6117 54.0459 11.7961L53.7747 14.254C52.8796 14.0183 52.2648 13.9006 51.9303 13.9006C51.5053 13.9006 51.293 14.0951 51.293 14.4844C51.293 14.638 51.3952 14.7864 51.5994 14.9299C51.8021 15.0734 52.0478 15.2239 52.3372 15.3815C52.6266 15.5413 52.9157 15.7308 53.2051 15.9499C53.4945 16.1711 53.7413 16.4866 53.9455 16.8962C54.1481 17.3057 54.2493 17.777 54.2493 18.3095C54.2493 19.2825 54.0188 20.0352 53.5577 20.5676C53.0966 21.1001 52.4438 21.3664 51.5994 21.3664C50.7532 21.3664 49.9279 21.218 49.1232 20.9209L49.2723 18.632C50.2398 18.9494 50.9133 19.1083 51.293 19.1083C51.6727 19.1083 51.8625 18.9187 51.8625 18.5399C51.8625 18.3454 51.7614 18.166 51.5588 18.0022C51.3545 17.8385 51.1077 17.6744 50.8183 17.5106C50.5289 17.3469 50.2379 17.1573 49.945 16.9423C49.6502 16.7272 49.4017 16.4147 49.1991 16.0052C48.9949 15.5957 48.8926 15.109 48.8926 14.5458Z" fill="white"/>
</g>
</g>
</g>
</g>
<g clip-path="url(#clip7_6_7)">
<g clip-path="url(#clip8_6_7)">
<path d="M7.91807 8.19175L7.04517 9.18027L9.31419 11.7513L10.1871 10.7628L7.91807 8.19175Z" fill="white"/>
<path d="M15.9479 10.169L15.0751 11.1576L18.3921 14.9149L19.2648 13.9263L15.9479 10.169Z" fill="white"/>
<path d="M9.83799 17.0899L8.96521 18.0785L12.2823 21.836L13.1551 20.8474L9.83799 17.0899Z" fill="white"/>
<path d="M10.8862 19.8579L11.9337 21.0447L18.5681 13.5315L17.5207 12.3447L10.8862 19.8579Z" fill="white"/>
<path d="M7.21973 12.1462L14.0281 19.8586L17.345 16.1014L10.5366 8.38899L7.21973 12.1462ZM11.5841 12.3439L10.7111 13.3328L9.83828 12.3439L10.7111 11.3552L11.5841 12.3439Z" fill="white"/>
<path d="M4.42652 4.23648L3.55359 5.22531L5.99743 7.99362L6.87036 7.00479L4.42652 4.23648Z" fill="white"/>
<path d="M0.935124 0.28159L0.0621948 1.27042L2.50618 4.03889L3.37911 3.05006L0.935124 0.28159Z" fill="white"/>
</g>
</g>
</g>
</g>
</g>
<defs>
<clipPath id="clip0_6_7">
<rect width="58" height="21.714" fill="white" transform="translate(0 0.201965)"/>
</clipPath>
<clipPath id="clip1_6_7">
<rect width="57.8758" height="21.6622" fill="white" transform="translate(0.0621948 0.227829)"/>
</clipPath>
<clipPath id="clip2_6_7">
<rect width="57.8758" height="21.6622" fill="white" transform="translate(0.0621948 0.227829)"/>
</clipPath>
<clipPath id="clip3_6_7">
<rect width="33.781" height="21.5544" fill="white" transform="translate(24.157 0.281525)"/>
</clipPath>
<clipPath id="clip4_6_7">
<rect width="33.781" height="21.5544" fill="white" transform="translate(24.157 0.281525)"/>
</clipPath>
<clipPath id="clip5_6_7">
<rect width="33.781" height="21.5544" fill="white" transform="translate(24.157 0.281525)"/>
</clipPath>
<clipPath id="clip6_6_7">
<rect width="33.781" height="21.5544" fill="white" transform="translate(24.157 0.281525)"/>
</clipPath>
<clipPath id="clip7_6_7">
<rect width="19.2026" height="21.5544" fill="white" transform="translate(0.0621948 0.281586)"/>
</clipPath>
<clipPath id="clip8_6_7">
<rect width="19.2026" height="21.5544" fill="white" transform="translate(0.0621948 0.281586)"/>
</clipPath>
</defs>
</svg>
